# xmcd
#
# Track frame offsets:
# 150
# 17485
# 29486
# 38536
# 51922
# 76600
# 89976
# 103348
# 121075
# 128425
# 143788
# 160406
# 188301
# 206177
# 216099
# 232281
# 245124
# 257342
# 288325
# 308509
#
# Disc length: 4646 seconds
#
#
# Revision: 14
# Processed by: cddbd v1.5.1PL2 Copyright (c) Steve Scherf et al.
# Submitted via: FreeRIP 2.90 
#
DISCID=13122414
DTITLE=The Bootleg Series 1961-1991 CD2
DYEAR=1991
DGENRE=Folk-Rock
TTITLE0=Seven Curses
TTITLE1=Eternal Circle
TTITLE2=Suze (The Cough Song)
TTITLE3=Mama, You Been On My Mind
TTITLE4=Farewell, Angelina
TTITLE5=Subterranean Homesick Blues (Acoustic)
TTITLE6=If You Gotta Go, Go Now (Or Else You Got To Stay All Night)
TTITLE7=Sitting On A Barbed Wire Fence
TTITLE8=Like A Rolling Stone (Demo)
TTITLE9=It Takes A Lot To Laugh, It Takes A Train To Cry (Outtake)
TTITLE10=I'll Keep It With Mine (Blonde On Blonde Outtake)
TTITLE11=She's Your Lover Now
TTITLE12=I Shall Be Released
TTITLE13=Santa-Fe
TTITLE14=If Not For You
TTITLE15=Wallflower
TTITLE16=Nobody 'cept You
TTITLE17=Tangled Up In Blue (Ny Outtake)
TTITLE18=Call Letter Blues
TTITLE19=Idiot Wind (Ny Outtake)
EXTD=
EXTT0=
EXTT1=
EXTT2=
EXTT3=
EXTT4=
EXTT5=
EXTT6=
EXTT7=
EXTT8=
EXTT9=
EXTT10=
EXTT11=
EXTT12=
EXTT13=
EXTT14=
EXTT15=
EXTT16=
EXTT17=
EXTT18=
EXTT19=
PLAYORDER=
